<svg xmlns="http://www.w3.org/2000/svg"  viewBox="0 0 64 64" width="64px" height="64px"><path d="M 10 6 C 7.8026661 6 6 7.8026661 6 10 L 6 54 C 6 56.197334 7.8026661 58 10 58 L 54 58 C 56.197334 58 58 56.197334 58 54 L 58 40.675781 A 1.0001 1.0001 0 0 0 58 40.347656 L 58 10 C 58 7.8026661 56.197334 6 54 6 L 10 6 z M 10 8 L 54 8 C 55.116666 8 56 8.8833339 56 10 L 56 38.082031 L 53.763672 35.839844 A 1.0001 1.0001 0 0 0 53.044922 35.537109 A 1.0001 1.0001 0 0 0 52.347656 37.253906 L 56 40.914062 L 56 54 C 56 55.116666 55.116666 56 54 56 L 43 56 L 43 45 L 43 42 A 1.0001 1.0001 0 0 0 42.945312 41.673828 L 35.652344 20.523438 L 44.222656 29.111328 A 1.0001 1.0001 0 1 0 45.638672 27.699219 L 33.757812 15.792969 A 1.0001 1.0001 0 0 0 33.460938 15.583984 C 33.026249 15.272109 32.507351 15.101563 32 15.101562 C 31.028226 15.101562 30.00657 15.712985 29.636719 16.785156 L 21.054688 41.673828 A 1.0001 1.0001 0 0 0 21 42 L 21 56 L 10 56 C 8.8833339 56 8 55.116666 8 54 L 8 10 C 8 8.8833339 8.8833339 8 10 8 z M 24.392578 15.460938 A 1.0001 1.0001 0 0 0 24.132812 17.410156 L 26.023438 18.060547 A 1.0001 1.0001 0 1 0 26.675781 16.169922 L 24.785156 15.519531 A 1.0001 1.0001 0 0 0 24.392578 15.460938 z M 32 17.101562 C 32.213726 17.101562 32.377508 17.161672 32.472656 17.4375 L 34.736328 24 L 29.263672 24 L 31.527344 17.4375 C 31.622494 17.161671 31.786274 17.101562 32 17.101562 z M 22.839844 19.957031 A 1.0001 1.0001 0 0 0 22.582031 21.90625 L 24.472656 22.558594 A 1.0001 1.0001 0 1 0 25.125 20.667969 L 23.234375 20.015625 A 1.0001 1.0001 0 0 0 22.839844 19.957031 z M 21.291016 24.453125 A 1.0001 1.0001 0 0 0 21.03125 26.402344 L 22.923828 27.054688 A 1.0001 1.0001 0 1 0 23.574219 25.164062 L 21.683594 24.511719 A 1.0001 1.0001 0 0 0 21.291016 24.453125 z M 28.574219 26 L 35.425781 26 L 39.587891 38.074219 C 39.395954 38.030782 39.200685 38 39 38 C 37.805556 38 36.745289 38.802863 36.066406 40.009766 C 35.980676 40.162179 35.94342 40.385891 35.867188 40.552734 C 35.748759 40.350031 35.686142 40.080871 35.550781 39.900391 C 34.640781 38.687057 33.333333 38 32 38 C 30.666667 38 29.359219 38.687057 28.449219 39.900391 C 28.313858 40.080871 28.251241 40.350031 28.132812 40.552734 C 28.056581 40.385891 28.019326 40.162179 27.933594 40.009766 C 27.254711 38.802863 26.194444 38 25 38 C 24.799315 38 24.604046 38.030782 24.412109 38.074219 L 28.574219 26 z M 19.740234 28.949219 A 1.0001 1.0001 0 0 0 19.480469 30.898438 L 21.371094 31.550781 A 1.0001 1.0001 0 1 0 22.023438 29.660156 L 20.132812 29.007812 A 1.0001 1.0001 0 0 0 19.740234 28.949219 z M 48.029297 30.509766 A 1.0001 1.0001 0 0 0 47.330078 32.226562 L 49.306641 34.207031 A 1.0001 1.0001 0 1 0 50.722656 32.794922 L 48.746094 30.814453 A 1.0001 1.0001 0 0 0 48.029297 30.509766 z M 18.189453 33.445312 A 1.0001 1.0001 0 0 0 17.931641 35.394531 L 19.822266 36.046875 A 1.0001 1.0001 0 1 0 20.474609 34.15625 L 18.582031 33.503906 A 1.0001 1.0001 0 0 0 18.189453 33.445312 z M 25 40 C 25.305556 40 25.745289 40.197137 26.191406 40.990234 C 26.637524 41.783332 27 43.125 27 45 L 27 56 L 23 56 L 23 45 C 23 43.125 23.362476 41.783332 23.808594 40.990234 C 24.254711 40.197137 24.694444 40 25 40 z M 32 40 C 32.666667 40 33.359219 40.312943 33.949219 41.099609 C 34.539219 41.886276 35 43.166667 35 45 L 35 56 L 29 56 L 29 45 C 29 43.166667 29.460781 41.886276 30.050781 41.099609 C 30.640781 40.312943 31.333333 40 32 40 z M 39 40 C 39.305556 40 39.745289 40.197137 40.191406 40.990234 C 40.637524 41.783332 41 43.125 41 45 L 41 56 L 37 56 L 37 45 C 37 43.125 37.362476 41.783332 37.808594 40.990234 C 38.254711 40.197137 38.694444 40 39 40 z"/></svg>