<svg xmlns="http://www.w3.org/2000/svg"  viewBox="0 0 50 50" width="50px" height="50px"><path d="M 28.177734 6.1171875 C 27.990234 6.1034375 27.800859 6.1404688 27.630859 6.2304688 C 26.950859 6.6104688 11.710859 15.05 10.130859 26.25 C 21.640859 27.22 29.889141 20.829766 31.869141 15.259766 C 29.619141 13.159766 28.540312 10.229922 29.070312 7.4199219 L 29.089844 7.3203125 C 29.169844 6.9303125 29.020937 6.5405469 28.710938 6.3105469 C 28.550938 6.1955469 28.365234 6.1309375 28.177734 6.1171875 z M 33.519531 16.539062 C 30.939531 22.829063 22.850703 28.349609 12.470703 28.349609 C 11.660703 28.349609 10.84 28.310234 10 28.240234 L 10 28.310547 C 10 32.030547 11.289453 35.500703 13.439453 38.220703 C 27.049453 37.800703 35.129844 29.750469 37.589844 20.730469 C 36.539844 19.100469 35.159531 17.669062 33.519531 16.539062 z M 38.890625 23.220703 C 35.800625 31.810703 27.890234 39.160859 15.240234 40.130859 C 17.520234 42.180859 20.400547 43.530313 23.560547 43.820312 C 24.050547 43.870312 24.539531 43.890625 25.019531 43.890625 C 28.779531 43.890625 32.309375 42.530469 35.109375 39.980469 C 38.219375 37.150469 40 33.100625 40 28.890625 C 40 26.910625 39.620625 24.990703 38.890625 23.220703 z"/></svg>