<svg xmlns="http://www.w3.org/2000/svg"  viewBox="0 0 30 30" width="60px" height="60px"><path d="M28.26,5.13L15.58,1.18c-0.39-0.12-0.81-0.12-1.19,0L1.7,5.13C1.28,5.26,1,5.65,1,6.09v17.44c0,0.41,0.24,0.77,0.62,0.93	l12.6,5.22c0.49,0.21,1.04,0.21,1.53,0l12.6-5.22c0.37-0.16,0.61-0.52,0.61-0.93V6.09C28.96,5.65,28.68,5.26,28.26,5.13z M6.91,15.22c0.31,0.38,0.78,0.8,1.42,1.26c0.5,0.36,0.94,0.72,1.31,1.08c0.37,0.36,0.68,0.73,0.93,1.11	c0.25,0.38,0.43,0.78,0.55,1.19c0.12,0.42,0.18,0.86,0.18,1.33c0,0.49-0.07,0.91-0.23,1.25c-0.15,0.34-0.37,0.6-0.65,0.77	c-0.28,0.18-0.62,0.26-1.01,0.26c-0.4,0.01-0.83-0.08-1.31-0.26c-0.43-0.15-0.85-0.38-1.26-0.68c-0.41-0.3-0.77-0.66-1.09-1.08	c-0.33-0.42-0.58-0.88-0.78-1.4c-0.19-0.52-0.29-1.08-0.29-1.68l1.5,0.52c0,0.36,0.05,0.69,0.15,0.99c0.1,0.29,0.23,0.55,0.4,0.78	c0.17,0.22,0.37,0.42,0.61,0.58c0.23,0.16,0.48,0.29,0.76,0.38c0.53,0.2,0.94,0.2,1.21,0.01c0.28-0.18,0.41-0.51,0.41-0.98	c0-0.24-0.02-0.45-0.08-0.66c-0.05-0.2-0.15-0.4-0.29-0.61c-0.14-0.2-0.34-0.41-0.58-0.64c-0.25-0.23-0.57-0.48-0.95-0.77	c-0.42-0.3-0.81-0.62-1.16-0.95C6.3,16.69,6,16.34,5.75,15.98c-0.25-0.36-0.45-0.75-0.59-1.15c-0.14-0.41-0.21-0.85-0.21-1.31	s0.07-0.86,0.22-1.19c0.15-0.34,0.35-0.61,0.62-0.81c0.28-0.2,0.6-0.32,0.98-0.36c0.38-0.04,0.81,0.02,1.27,0.16	c0.5,0.15,0.95,0.39,1.36,0.7c0.4,0.32,0.74,0.68,1.02,1.09c0.29,0.42,0.5,0.87,0.65,1.35c0.15,0.48,0.23,0.96,0.23,1.45L9.72,15.4	c0-0.28-0.03-0.55-0.1-0.81s-0.17-0.5-0.31-0.72c-0.14-0.22-0.32-0.41-0.53-0.57c-0.21-0.16-0.46-0.29-0.75-0.38	c-0.27-0.09-0.51-0.12-0.7-0.11c-0.2,0.02-0.37,0.08-0.5,0.18c-0.13,0.1-0.22,0.24-0.28,0.41c-0.07,0.18-0.1,0.38-0.1,0.6	C6.45,14.43,6.61,14.83,6.91,15.22z M24.96,21.84l-1.31,0.53l-1.53-7.92l-1.59,9.19l-1.39,0.56l-1.95-11.23l1.46-0.5l1.3,8.46	l1.57-9.44l1.18-0.4l1.51,8.19l1.21-9.12l1.34-0.46L24.96,21.84z"/></svg>